<svg width="820" height="163" viewBox="0 0 820 163" fill="none" xmlns="http://www.w3.org/2000/svg">
<g clip-path="url(#clip0_70_256)">
<path d="M29.6932 30.5324V55.3073H69.4578V78.3374H29.6932V105.206H74.6672V129.108H0V6.62989H74.6672V30.5324H29.6932Z" fill="#232526"/>
<path d="M88.0405 80.2566C88.0405 70.2536 89.8927 61.4719 93.5972 53.9115C97.4173 46.3511 102.569 40.5354 109.052 36.4644C115.534 32.3934 122.769 30.3579 130.757 30.3579C137.124 30.3579 142.912 31.6955 148.122 34.3708C153.447 37.046 157.614 40.6517 160.624 45.1879V0H190.317V129.108H160.624V115.151C157.846 119.803 153.852 123.525 148.643 126.317C143.549 129.108 137.587 130.504 130.757 130.504C122.769 130.504 115.534 128.469 109.052 124.398C102.569 120.21 97.4173 114.337 93.5972 106.776C89.8927 99.0994 88.0405 90.2596 88.0405 80.2566ZM160.624 80.4311C160.624 72.987 158.54 67.1131 154.373 62.8095C150.321 58.5059 145.343 56.3541 139.439 56.3541C133.535 56.3541 128.5 58.5059 124.332 62.8095C120.281 66.9968 118.255 72.8125 118.255 80.2566C118.255 87.7007 120.281 93.6327 124.332 98.0526C128.5 102.356 133.535 104.508 139.439 104.508C145.343 104.508 150.321 102.356 154.373 98.0526C158.54 93.749 160.624 87.8752 160.624 80.4311Z" fill="#232526"/>
<path d="M307.477 31.7537V129.108H277.784V115.849C274.774 120.152 270.664 123.642 265.455 126.317C260.362 128.876 254.689 130.155 248.438 130.155C241.029 130.155 234.489 128.527 228.816 125.27C223.144 121.897 218.745 117.07 215.619 110.789C212.493 104.508 210.931 97.1221 210.931 88.6312V31.7537H240.45V84.6184C240.45 91.1319 242.129 96.1916 245.486 99.7973C248.843 103.403 253.358 105.206 259.03 105.206C264.818 105.206 269.391 103.403 272.748 99.7973C276.105 96.1916 277.784 91.1319 277.784 84.6184V31.7537H307.477Z" fill="#232526"/>
<path d="M461.092 47.9795C464.564 42.629 468.906 38.4417 474.115 35.4176C479.324 32.2771 485.112 30.7069 491.479 30.7069V62.2861H483.318C475.909 62.2861 470.353 63.9145 466.648 67.1713C462.944 70.3118 461.092 75.8948 461.092 83.9205V129.108H431.398V31.7537H461.092V47.9795Z" fill="#232526"/>
<path d="M499.768 80.2566C499.768 70.2536 501.62 61.4719 505.325 53.9115C509.145 46.3511 514.296 40.5354 520.779 36.4644C527.262 32.3934 534.497 30.3579 542.485 30.3579C549.315 30.3579 555.277 31.7537 560.37 34.5452C565.58 37.3368 569.573 41.0006 572.352 45.5369V31.7537H602.045V129.108H572.352V115.325C569.458 119.861 565.406 123.525 560.197 126.317C555.103 129.108 549.141 130.504 542.311 130.504C534.439 130.504 527.262 128.469 520.779 124.398C514.296 120.21 509.145 114.337 505.325 106.776C501.62 99.0994 499.768 90.2596 499.768 80.2566ZM572.352 80.4311C572.352 72.987 570.268 67.1131 566.1 62.8095C562.049 58.5059 557.071 56.3541 551.167 56.3541C545.263 56.3541 540.227 58.5059 536.06 62.8095C532.008 66.9968 529.982 72.8125 529.982 80.2566C529.982 87.7007 532.008 93.6327 536.06 98.0526C540.227 102.356 545.263 104.508 551.167 104.508C557.071 104.508 562.049 102.356 566.1 98.0526C570.268 93.749 572.352 87.8752 572.352 80.4311Z" fill="#232526"/>
<path d="M617.623 80.4311C617.623 70.3118 619.648 61.4719 623.7 53.9115C627.868 46.3511 633.598 40.5354 640.891 36.4644C648.3 32.3934 656.751 30.3579 666.243 30.3579C678.398 30.3579 688.528 33.5566 696.631 39.9538C704.85 46.3511 710.233 55.3654 712.78 66.9968H681.177C678.514 59.5527 673.363 55.8307 665.722 55.8307C660.281 55.8307 655.94 57.9825 652.699 62.2861C649.457 66.4734 647.837 72.5217 647.837 80.4311C647.837 88.3404 649.457 94.4469 652.699 98.7505C655.94 102.938 660.281 105.031 665.722 105.031C673.363 105.031 678.514 101.309 681.177 93.8653H712.78C710.233 105.264 704.85 114.22 696.631 120.734C688.412 127.247 678.283 130.504 666.243 130.504C656.751 130.504 648.3 128.469 640.891 124.398C633.598 120.327 627.868 114.511 623.7 106.951C619.648 99.3902 617.623 90.5504 617.623 80.4311Z" fill="#232526"/>
<path d="M820 78.8608C820 81.6524 819.826 84.5602 819.479 87.5844H752.279C752.742 93.6327 754.652 98.2852 758.009 101.542C761.482 104.683 765.707 106.253 770.685 106.253C778.094 106.253 783.245 103.112 786.139 96.8313H817.743C816.122 103.229 813.17 108.986 808.887 114.104C804.719 119.222 799.452 123.235 793.085 126.142C786.718 129.05 779.599 130.504 771.727 130.504C762.234 130.504 753.784 128.469 746.375 124.398C738.966 120.327 733.178 114.511 729.01 106.951C724.843 99.3902 722.759 90.5504 722.759 80.4311C722.759 70.3118 724.785 61.4719 728.837 53.9115C733.004 46.3511 738.792 40.5354 746.201 36.4644C753.61 32.3934 762.119 30.3579 771.727 30.3579C781.104 30.3579 789.439 32.3353 796.732 36.2899C804.025 40.2446 809.697 45.8858 813.749 53.2136C817.916 60.5414 820 69.0905 820 78.8608ZM789.612 71.0096C789.612 65.8918 787.876 61.8208 784.403 58.7967C780.93 55.7725 776.589 54.2604 771.38 54.2604C766.402 54.2604 762.176 55.7144 758.703 58.6222C755.346 61.5301 753.263 65.6592 752.452 71.0096H789.612Z" fill="#232526"/>
<path d="M418.289 0V23.9025H385.991V144.287L372.232 163.37L356.298 144.287V23.9025H324V0H418.289Z" fill="#232526"/>
</g>
<defs>
<clipPath id="clip0_70_256">
<rect width="820" height="163" fill="white"/>
</clipPath>
</defs>
</svg>
